PathFileType	4	(X/Y/Z)	13_2_36_p1_0-268_filt_butterworth.trc
DataRate	CameraRate	NumFrames	NumMarkers	Units	OrigDataRate	OrigDataStartFrame	OrigNumFrames
59.0	59.0	7	27	m	59.0	134	268
Frame#	Time	RHip			RKnee			RAnkle			RBigToe			RSmallToe			RHeel			LHip			LKnee			LAnkle			LBigToe			LSmallToe			LHeel			Neck			Head			Nose			RShoulder			RElbow			RWrist			RThumb			RIndex			RPinky			LShoulder			LElbow			LWrist			LThumb			LIndex			LPinky			
		X1	Y1	Z1	X2	Y2	Z2	X3	Y3	Z3	X4	Y4	Z4	X5	Y5	Z5	X6	Y6	Z6	X7	Y7	Z7	X8	Y8	Z8	X9	Y9	Z9	X10	Y10	Z10	X11	Y11	Z11	X12	Y12	Z12	X13	Y13	Z13	X14	Y14	Z14	X15	Y15	Z15	X16	Y16	Z16	X17	Y17	Z17	X18	Y18	Z18	X19	Y19	Z19	X20	Y20	Z20	X21	Y21	Z21	X22	Y22	Z22	X23	Y23	Z23	X24	Y24	Z24	X25	Y25	Z25	X26	Y26	Z26	X27	Y27	Z27	
134	2.2711864406779663	0.25573161534602484	0.8586566271596263	0.5774641970788388	0.27187017569677724	1.0969359700150996	1.004756393303431	0.2610286897073183	1.3108257647938508	1.3828885906855022	0.2534779270546339	1.084395562388314	1.4562543597316608	0.32045612271468166	1.1427140513280691	1.4540557001879457	0.25006145404346086	1.3855423038955947	1.4278062152478943	0.052522528210833676	0.8726467473303605	0.5856927487558994	0.06667395454460975	1.0719079994765086	1.0131630103056533	0.06830526480496422	1.2471185557559328	1.3902862421010833	0.08910916908196403	1.126322657280339	1.4757818041689266	0.03350026538992395	1.1456800952349324	1.4628024791347831	0.09694713802137084	1.3409649782969095	1.4164430836650774	0.13860643865975028	0.6844229019022432	0.13297949256681602	0.11878379986967168	0.49916224047067587	-0.07016064842442549	0.13327903378483408	0.47717230530589805	0.07413374432390138	0.301405159640158	0.658149208901235	0.1823869028712351	0.3321961192084875	0.767060855074206	0.42527587292484365	0.3330941803800159	0.8286316342655039	0.6857122588043421	0.28053214134734283	0.8624184079569212	0.7908399455205902	0.3153858369090001	0.8578379032005495	0.8110317890945207	0.3360038630121326	0.8720696990795966	0.8048532958046767	0.016248883168465282	0.7046053641573081	0.18854127217602723	0.0047436951237332554	0.7708401107597277	0.4634925650384415	0.04337986945814071	0.8315545958247118	0.706760664481124	0.08401640605556843	0.8058052879194363	0.8062755227053413	0.06689361913619123	0.7692255054496819	0.8400550947767526	0.04055634461947499	0.8270526154082324	0.8306565114457585
135	2.288135593220339	0.25521563721946844	0.858959038424932	0.5773526202742284	0.27185619432811436	1.0969538675629593	1.0047279427055875	0.26102751364299964	1.3106815236036773	1.3828728563114532	0.2534959129810152	1.084236092701873	1.4560783896218297	0.3204657161953272	1.1421011513403196	1.4538911213343444	0.25034303302240096	1.385559360516622	1.4262556646257771	0.052502166419736804	0.8732523676144835	0.585990033108472	0.06498895160383716	1.0749721260578047	1.0141759988710144	0.06870843354807868	1.2478973430042517	1.3901766998289806	0.09010738826872508	1.128690220844487	1.4759661642619737	0.033920398348142304	1.1452700149216584	1.4619513443831265	0.09557641821326499	1.3366911003606643	1.4168668718318993	0.13859843669763794	0.6841190274503302	0.1330129519683572	0.11974984953982501	0.5022195813274127	-0.07123242098041624	0.1332775528686877	0.4772354616741682	0.07408114459191414	0.3014392982991481	0.6580979369102897	0.18236314773803197	0.33236497951905103	0.7679964274221369	0.4242484142746398	0.33383893230125244	0.826839893772674	0.6857785753536162	0.2843932792117908	0.8636949236317654	0.7917689391259068	0.32003924814984214	0.8600446270860943	0.8108108934919376	0.336011405601658	0.8721217486819434	0.8057820372907964	0.016153263431932408	0.7045865238740564	0.1884614584000166	0.0047780381403942675	0.7710059467993069	0.4641829701162038	0.043051399153990075	0.832087722003745	0.7086243571373486	0.08390038321315609	0.8066477794550997	0.8097825591868968	0.06534884257911115	0.774902080319579	0.8437328433309179	0.03583291770961839	0.8394993112856346	0.8311060314894302
136	2.305084745762712	0.2551119686195558	0.8591582002338681	0.5777087443412506	0.27185558847941843	1.096966966448757	1.0046758919851748	0.261042763079246	1.3105495158043763	1.382859008181222	0.25349425231576705	1.083886526889762	1.4560212573330218	0.32046819796116227	1.141575520935671	1.4537724251756294	0.2507518138235671	1.3855792621198342	1.424064382511518	0.05265121651587218	0.8743630430388113	0.5869407056930069	0.06285992196881321	1.0805111047244855	1.01529034247774	0.06926435998757935	1.2494823193133526	1.3906981209807607	0.09073951162420915	1.1295391040966887	1.4774049353229266	0.03412172301085144	1.1454243811704061	1.4619650380501588	0.09489718532291605	1.3313839446025386	1.4177342877075942	0.13890061452189856	0.6851085333944875	0.13240368503252853	0.12120473595288425	0.5050328674874621	-0.07228211202131074	0.13353527864237674	0.47731665392249567	0.07398142766268748	0.3014679489446347	0.6580780633374512	0.1823565580061139	0.3314307710438493	0.7668382189200649	0.4252984824852878	0.3354212591874296	0.8260954099512808	0.68575507580463	0.28947238939686154	0.8651087748469241	0.7924682745105301	0.3246748601849043	0.865144845555514	0.8105278473030777	0.3360033193162566	0.87218095594365	0.806123148004121	0.01618840976065611	0.7048526546719175	0.18853079867533545	0.004659728340755872	0.7712367044504946	0.4642183167527594	0.041812690887721146	0.8322180691423018	0.7099742777073771	0.08301973977640664	0.8048494852369525	0.814498599204072	0.06425561696513715	0.7794627835133399	0.8488764829961369	0.03207263709873655	0.8474870675684079	0.832687176815689
137	2.3220338983050848	0.25513523967904567	0.8592892870882944	0.5787447977782703	0.2718484286603566	1.0969820192917086	1.0046347625428826	0.26105519193289717	1.310515491280049	1.382876493962073	0.2534844787163653	1.0835308350637578	1.4560419569156682	0.32047755859520366	1.1412970008279437	1.45373951754486	0.25106973672879496	1.3855855512040878	1.4224331875544185	0.05287699641421409	0.8756706620925145	0.5882815669658169	0.06137284293800546	1.085834303071536	1.0169974529362076	0.06950782733020688	1.250958911347824	1.392074967339753	0.09079518950338648	1.1297598391834898	1.4791296815688426	0.034014867006794194	1.146158807232064	1.4630957841902834	0.09471773299645708	1.3274067048332465	1.4189987224465435	0.13968012587598977	0.6881755366240438	0.13092958650509418	0.12337795131070026	0.5051591380301066	-0.07269660615240794	0.13420488789701293	0.47738995606652496	0.07383599082605291	0.30147982647325594	0.6581173378528387	0.18236402581503047	0.329359619068397	0.7633905967839757	0.42774671179395596	0.3370580651441423	0.8257478098671406	0.6857230245704901	0.2952433755484438	0.86604283249668	0.7933090283924219	0.3285728692597612	0.8697063055398849	0.8102739163740793	0.33647276210627286	0.8721476888363767	0.8060729126855404	0.016307501047484286	0.7054796329613778	0.18888652996982563	0.004749280826092158	0.7717817040936966	0.4641020980149205	0.03949427790489445	0.8321393790295046	0.7106702056003931	0.08102123607537083	0.7985238868846107	0.8188073336743942	0.06353134974592148	0.7816896463306628	0.8538360640733602	0.029275276901799034	0.8495617190596079	0.8345157007054731
138	2.3389830508474576	0.25508550959797344	0.859281023493128	0.5801118018302851	0.2718308823567682	1.0969971548202533	1.0046677034066	0.2610439480237443	1.3105804762193156	1.382963072987925	0.2535679446208806	1.0836563834958985	1.4561520212403805	0.32050331884403516	1.1413596770388836	1.4537898167836065	0.2512259713599089	1.385601561923882	1.421802942001007	0.053047164267630766	0.8765528715835142	0.5893751970229071	0.061334138574222874	1.0878209675430375	1.019140852996816	0.0694516814470512	1.2517999812202225	1.3938937039298533	0.09062597159243417	1.1297166766087248	1.4800605529999986	0.033698607004952634	1.1471978703533803	1.464807173676168	0.09450477921498611	1.3253095511343795	1.419739638089126	0.14069207151273763	0.6921504418953192	0.1288740497783052	0.1259238902230163	0.5026942991570322	-0.07241602659402965	0.13519643507595458	0.4774182313905746	0.0736854672365912	0.3014815491088276	0.658186368789845	0.18238820145538473	0.32711371884460116	0.7587392338453958	0.4302783331928629	0.3380812228177006	0.8256090407509988	0.6857145746422812	0.3008486996271597	0.8652876610401535	0.7943113623762579	0.33093381334335276	0.8716096650353393	0.8100937721288638	0.3381300529775958	0.8719379932825828	0.8056045686216617	0.016456735686836553	0.7063039876458508	0.18969337173436301	0.005510172443212004	0.7724345879741569	0.4638006378221633	0.03650763718692595	0.8319618071281601	0.7109228246861716	0.07871951036125707	0.7919687281166101	0.8220747362696803	0.06224514895770607	0.7825079230548299	0.8570042465893987	0.026290904832050942	0.8485470114738723	0.8357049193119823
139	2.3559322033898304	0.2550484391887428	0.8591030332172873	0.5811480535089368	0.2718137147130318	1.0970099919059522	1.004798187419857	0.26101402825515974	1.3106820244903246	1.3831066482152072	0.25396287406456947	1.0852680742655505	1.4564528583268972	0.3205432028084027	1.1417415820950065	1.453886193286104	0.25129101531656944	1.3856561486356707	1.4217916943258813	0.053062768270192816	0.8766536656252797	0.5898816927681487	0.06273110437694333	1.0851399629441605	1.0207965567820765	0.06935196462260323	1.251997614593086	1.3952712580472826	0.0904893971088773	1.129643058609867	1.480252059846517	0.03341735440899597	1.1479386885652323	1.4661424971387953	0.09423399026449161	1.3240701030350253	1.4191897748746933	0.14141913136233442	0.6947330071146363	0.12692460192951405	0.12804402950785945	0.5000995507943448	-0.07174151319058872	0.13638183159207506	0.4773578872887597	0.07358960274964924	0.30148069864856153	0.6582218092375874	0.1824158422230946	0.3261585733370506	0.7553326057473445	0.4318949892505458	0.3384032769544252	0.825596956572649	0.6857126038685156	0.30613279078114586	0.8622347664652905	0.7950550524867566	0.3312711744548863	0.8704029548603887	0.8099773010707139	0.3410465106993775	0.8719449721821971	0.8045566211846674	0.016572285261588323	0.7069528313991014	0.19073320869822122	0.007293642110847637	0.7725374832137384	0.4629632250620386	0.033582742208307245	0.8316745950670789	0.711006883955221	0.07685176368714054	0.788726697609773	0.8247778709111823	0.0597489577595728	0.782613974595354	0.8581691818118309	0.022659309784256308	0.8476003718462417	0.8363123963597487
140	2.3728813559322037	0.2553894114320469	0.8589851362956599	0.5815412567545787	0.2718056592154093	1.0970176647119214	1.0049738543204745	0.26101107732011325	1.310717143720233	1.3831452533012418	0.2548491523539439	1.0891532993994055	1.4570804425835904	0.32057811589860113	1.1422430499269685	1.4539775043621477	0.25132303401344536	1.385711616706472	1.4219338514738995	0.052940918350980276	0.8762198215021373	0.5899164644890252	0.06464612235926574	1.0794002062794883	1.021115400842546	0.0693163534385012	1.2517979353384059	1.3956908377985724	0.09039102109446287	1.1297274367578485	1.4801966035216954	0.03331831173640027	1.147923186737337	1.4666151623130619	0.09441429428003736	1.3237403903692655	1.417657610230727	0.14167232389456624	0.6952826133326508	0.12570504049422943	0.12935995145241005	0.4988972642470171	-0.0710808699186115	0.13781467062892405	0.4771864287641704	0.07357046627570898	0.30147946621483357	0.6581998647854204	0.18241776279683514	0.3267245128514087	0.7543755417087493	0.4323948484015594	0.3383580062025288	0.8256245723407282	0.685707772346716	0.3107661268041022	0.8581259963414458	0.7953355670687571	0.3301480214939694	0.8664234893491158	0.8099613676452699	0.3442169717495535	0.8730179153401304	0.803059698217103	0.016624933986181995	0.7072357833562883	0.19150996470819726	0.00959631663291502	0.7708630163570643	0.46145362528078004	0.03131547382421794	0.8313421688588524	0.711057284522799	0.0753419262235365	0.7883552270250137	0.8271655493234729	0.05621609568257767	0.7819625898198594	0.8581902970691226	0.01908712314585579	0.8477299325827289	0.8365891704905108
